<svg xmlns="http://www.w3.org/2000/svg" width="23" height="22" viewBox="0 0 23 22"><defs><style>.cls-1{fill:#6e6e6e;fill-rule:evenodd}</style></defs><path id="Фигура_3" data-name="Фигура 3" class="cls-1" d="M193 1247h-3v-2h3a1 1 0 0 0 1-1v-7a1 1 0 0 0-1-1h-17a1 1 0 0 0-1 1v7a1 1 0 0 0 1 1h3v2h-3a3.006 3.006 0 0 1-3-3v-7a3.006 3.006 0 0 1 3-3h17a3.006 3.006 0 0 1 3 3v7a3.006 3.006 0 0 1-3 3zm-4 4h-9a2 2 0 0 1-2-2v-8h13v8a2 2 0 0 1-2 2zm-9-8v6h9v-6h-9zm9-7h-9a2 2 0 0 1-2-2v-3a2 2 0 0 1 2-2h9a2 2 0 0 1 2 2v3a2 2 0 0 1-2 2zm-9-5v3h9v-3h-9zm0 8h-2v-2h2v2zm9 6h-9v-2h9v2z" transform="translate(-173 -1229)"/></svg>